<?xml version="1.0" encoding="utf-8"?>
<!-- Generator: Adobe Illustrator 22.0.0, SVG Export Plug-In . SVG Version: 6.00 Build 0)  -->
<svg version="1.1" id="Capa_1" xmlns="http://www.w3.org/2000/svg" xmlns:xlink="http://www.w3.org/1999/xlink" x="0px" y="0px"
	 viewBox="0 0 42 81.1" style="enable-background:new 0 0 42 81.1;" xml:space="preserve">
<path d="M20.6,81.1L21,42c5.4,0,10.7-2.1,14.8-6.1c8.2-8.2,8.2-21.5,0-29.7S14.3-2,6.1,6.1s-8.2,21.5,0,29.7c3.6,3.6,8.2,5.6,12.9,6
	L18.6,81C19,81,19.6,81.1,20.6,81.1z M7.6,34.4C0.1,27,0.1,15,7.6,7.6s19.5-7.4,26.9,0s7.4,19.5,0,26.9S15,41.8,7.6,34.4z"/>
</svg>
