<?xml version="1.0" encoding="utf-8"?>
<!-- Generator: Adobe Illustrator 22.0.0, SVG Export Plug-In . SVG Version: 6.00 Build 0)  -->
<svg version="1.1" id="Capa_1" xmlns="http://www.w3.org/2000/svg" xmlns:xlink="http://www.w3.org/1999/xlink" x="0px" y="0px"
	 viewBox="0 0 42.7 52" style="enable-background:new 0 0 42.7 52;" xml:space="preserve">
<style type="text/css">
	.st0{font-family:'TimesNewRomanPS-BoldMT';}
	.st1{font-size:22px;}
</style>
<g>
	<path d="M1.7,33.1c-0.4-0.4-1-0.4-1.4,0s-0.4,1,0,1.4l10,10c0.2,0.2,0.4,0.3,0.7,0.3c0,0,0,0,0,0s0,0,0,0c0.3,0,0.6-0.2,0.8-0.4
		l9.9-9.9c0.4-0.4,0.4-1,0-1.4s-1-0.4-1.4,0L12,41.3V5.7c0-0.6-0.4-1-1-1s-1,0.4-1,1v35.6L1.7,33.1z"/>
</g>
<text transform="matrix(1 0 0 1 27.0202 18.2832)"><tspan x="0" y="0" class="st0 st1">A</tspan><tspan x="0" y="27" class="st0 st1">Z</tspan></text>
</svg>
